<?xml version="1.0" encoding="UTF-8" standalone="no"?>
<!-- Created with Inkscape (http://www.inkscape.org/) -->

<svg
   xmlns:dc="http://purl.org/dc/elements/1.1/"
   xmlns:cc="http://creativecommons.org/ns#"
   xmlns:rdf="http://www.w3.org/1999/02/22-rdf-syntax-ns#"
   xmlns:svg="http://www.w3.org/2000/svg"
   xmlns="http://www.w3.org/2000/svg"
   xmlns:sodipodi="http://sodipodi.sourceforge.net/DTD/sodipodi-0.dtd"
   xmlns:inkscape="http://www.inkscape.org/namespaces/inkscape"
   width="135.46666mm"
   height="135.46666mm"
   viewBox="0 0 135.46666 135.46666"
   version="1.1"
   id="svg78"
   inkscape:export-filename="/home/fbuenod/Documentos/teste.png"
   inkscape:export-xdpi="96"
   inkscape:export-ydpi="96"
   inkscape:version="0.92.4 (unknown)"
   sodipodi:docname="cinesulicone.svg">
  <defs
     id="defs72" />
  <sodipodi:namedview
     id="base"
     pagecolor="#ffffff"
     bordercolor="#666666"
     borderopacity="1.0"
     inkscape:pageopacity="0.0"
     inkscape:pageshadow="2"
     inkscape:zoom="2.8"
     inkscape:cx="227.36941"
     inkscape:cy="25.705211"
     inkscape:document-units="mm"
     inkscape:current-layer="g472"
     showgrid="false"
     inkscape:window-width="1920"
     inkscape:window-height="1016"
     inkscape:window-x="0"
     inkscape:window-y="27"
     inkscape:window-maximized="1" />
  <metadata
     id="metadata75">
    <rdf:RDF>
      <cc:Work
         rdf:about="">
        <dc:format>image/svg+xml</dc:format>
        <dc:type
           rdf:resource="http://purl.org/dc/dcmitype/StillImage" />
        <dc:title></dc:title>
      </cc:Work>
    </rdf:RDF>
  </metadata>
  <g
     inkscape:label="Camada 1"
     inkscape:groupmode="layer"
     id="layer1"
     transform="translate(-37.041668,-75.505951)">
    <rect
       style="fill:#cd5a76;fill-opacity:1;stroke-width:0.26458332"
       id="rect80"
       width="135.46666"
       height="135.46666"
       x="37.041668"
       y="75.505951"
       rx="13.229166"
       ry="13.229166" />
    <path
       inkscape:connector-curvature="0"
       style="fill:#ffbb88;stroke-width:0.26742432"
       d="m 136.48917,148.28394 c -0.37001,0 -0.73383,0.0383 -1.08983,0.10514 1.9e-4,0 7.9e-4,-2.6e-4 0.001,-2.6e-4 0.47766,-1.19512 0.55516,-2.53642 0.15471,-3.80221 -0.50106,-1.58314 -1.64044,-2.79845 -3.05079,-3.4578 0.0538,-0.31121 0.0825,-0.62906 0.0825,-0.95089 0,-3.15059 -2.59545,-5.71384 -5.78565,-5.71384 -0.21286,0 -0.42328,0.0152 -0.63237,0.0379 0.001,-2.5e-4 0.002,-2.6e-4 0.005,-2.6e-4 0.31863,-0.71278 0.49408,-1.49253 0.49408,-2.29618 0,-3.15059 -2.59547,-5.71384 -5.78564,-5.71384 -1.24136,0 -2.4254,0.38323 -3.42376,1.10848 -0.14207,0.10341 -0.31026,0.1549 -0.4782,0.15533 -0.16827,0 -0.33637,-0.0515 -0.47817,-0.15533 -0.99838,-0.7247 -2.18215,-1.10848 -3.42376,-1.10848 -1.86136,0 -3.51578,0.87621 -4.5747,2.22894 2e-4,0 5.3e-4,0 8e-4,0 -0.34955,-0.0653 -0.7088,-0.1032 -1.07722,-0.1032 -1.24136,0 -2.42565,0.38323 -3.42374,1.10847 -0.14207,0.10341 -0.31028,0.1549 -0.47819,0.1549 -0.16828,0 -0.33638,-0.0515 -0.47819,-0.1549 -0.99837,-0.72472 -2.18213,-1.10847 -3.424039,-1.10847 -0.85438,0 -1.66301,0.18865 -2.39363,0.51823 1.9e-4,2.6e-4 5.3e-4,0.001 7.9e-4,0.001 -1.02875,-1.58737 -2.82582,-2.64509 -4.87259,-2.64509 -1.24135,0 -2.42538,0.38321 -3.42374,1.10847 -0.14208,0.10342 -0.31027,0.1549 -0.47819,0.15512 -0.16819,0 -0.33638,-0.0515 -0.4782,-0.15512 -0.99835,-0.72472 -2.18212,-1.10847 -3.42375,-1.10847 -3.19018,0 -5.78564,2.56325 -5.78564,5.71382 0,0.86613 0.19564,1.69768 0.5538,2.44605 -2.32125,0.58973 -4.07578,2.54785 -4.29671,5.01594 -0.0253,0.28278 -0.20101,0.53099 -0.46096,0.65139 -1.35788,0.62985 -2.38827,1.75402 -2.92216,3.09051 -1.54382,1.02717 -2.56156,2.76922 -2.56156,4.74168 0,0.33142 0.0296,0.65749 0.085,0.97588 -1.66142,1.00536 -2.77604,2.80987 -2.77604,4.87109 0,0.59798 0.0947,1.17866 0.26991,1.72746 h 18.82858 c 0.002,-0.004 0.003,-0.0108 0.004,-0.0152 -0.002,-0.006 -0.004,-0.013 -0.006,-0.0216 0.004,0.0108 0.006,0.024 0.0101,0.0359 h 18.828809 c 0.002,-0.004 0.002,-0.0108 0.005,-0.0152 -0.002,-0.006 -0.005,-0.013 -0.007,-0.0216 0.005,0.0108 0.007,0.024 0.009,0.0359 h 18.82864 c 0.002,-0.004 0.002,-0.0108 0.005,-0.0152 -0.002,-0.006 -0.005,-0.013 -0.007,-0.0216 0.005,0.0108 0.007,0.024 0.009,0.0359 h 18.82863 c 0.17862,-0.55145 0.27663,-1.13267 0.27663,-1.72744 -5.3e-4,-3.15083 -2.59573,-5.71408 -5.78618,-5.71408 z"
       id="path398" />
    <path
       inkscape:connector-curvature="0"
       style="fill:#ffffff;stroke-width:0.26742432"
       d="m 113.21204,134.33155 c 0,1.02477 -0.28549,2.01021 -0.79086,2.86755 0.023,0.0305 0.0476,0.058 0.0696,0.0889 0.16966,0.23891 0.45773,0.36726 0.75133,0.33511 0.2023,-0.0225 0.40364,-0.0305 0.60385,-0.0325 0.95799,-1.85235 2.90492,-3.12612 5.15163,-3.12612 1.24138,0 2.4254,0.38349 3.42376,1.10847 0.14184,0.10362 0.31001,0.15533 0.47819,0.15533 0.16782,-2.6e-4 0.33613,-0.0519 0.4782,-0.15533 0.82801,-0.60141 1.78467,-0.96363 2.79512,-1.07126 0.31864,-0.71277 0.49409,-1.4925 0.49409,-2.29617 0,-3.15057 -2.59548,-5.71382 -5.78565,-5.71382 -1.24136,0 -2.4254,0.38323 -3.42376,1.10847 -0.14207,0.10342 -0.31026,0.15491 -0.47819,0.15513 -0.16828,0 -0.33638,-0.0515 -0.47817,-0.15513 -0.99837,-0.72472 -2.18213,-1.10847 -3.42377,-1.10847 -1.86136,0 -3.51578,0.87621 -4.57469,2.22891 2.67726,0.49991 4.70922,2.82344 4.70922,5.61074 z"
       id="path400" />
    <path
       inkscape:connector-curvature="0"
       style="fill:#ff8080;stroke-width:0.26742432"
       d="m 98.142471,132.20549 c 0,1.48426 -0.59417,2.88747 -1.59817,3.93378 0.92167,-0.57459 1.97707,-0.87755 3.07824,-0.87755 1.481909,0 2.830899,0.55783 3.855649,1.46593 0.41818,-0.44993 0.91197,-0.84513 1.48436,-1.15711 2.56048,-1.39523 5.74366,-0.69071 7.45888,1.62856 0.50539,-0.85734 0.79089,-1.84278 0.79089,-2.86755 0,-3.15057 -2.59547,-5.71381 -5.78564,-5.71381 -1.24135,0 -2.42565,0.38322 -3.42377,1.10847 -0.14206,0.1034 -0.31025,0.1549 -0.47816,0.1549 -0.16828,0 -0.33637,-0.0515 -0.47819,-0.1549 -0.99837,-0.72473 -2.18213,-1.10847 -3.424019,-1.10847 -0.8544,0 -1.66304,0.18865 -2.39365,0.51822 0.57534,0.88764 0.91358,1.93951 0.91358,3.06953 z"
       id="path402" />
    <path
       inkscape:connector-curvature="0"
       style="fill:#ffffff;stroke-width:0.26742432"
       d="m 80.785561,134.46443 c 2.74078,0 5.05799,1.87627 5.64113,4.4568 -2e-4,-2.6e-4 -2e-4,-2.6e-4 -2e-4,-2.7e-4 0.83799,-2.13672 2.93615,-3.65899 5.39223,-3.65899 1.24135,0 2.42539,0.3835 3.42375,1.10849 0.14184,0.10363 0.31,0.15512 0.47819,0.15512 0.16782,-2.6e-4 0.3361,-0.0519 0.4782,-0.15512 0.11241,-0.0818 0.2285,-0.15794 0.34524,-0.23094 1.00402,-1.04631 1.59819,-2.44977 1.59819,-3.93378 0,-3.1506 -2.59547,-5.71384 -5.78564,-5.71384 -1.24136,0 -2.4254,0.38323 -3.42376,1.1085 -0.14209,0.10341 -0.31028,0.1549 -0.47819,0.15512 -0.16819,0 -0.33638,-0.0515 -0.47818,-0.15512 -0.99838,-0.72475 -2.18214,-1.1085 -3.42377,-1.1085 -3.19017,0 -5.78564,2.56324 -5.78564,5.71384 0,0.86611 0.19564,1.69766 0.55381,2.44605 0.4685,-0.11898 0.95799,-0.18713 1.46471,-0.18713 z"
       id="path404" />
    <path
       inkscape:connector-curvature="0"
       style="fill:#eef6ff;stroke-width:0.26742432"
       d="m 80.785561,134.46443 c 2.74078,0 5.05799,1.87627 5.64113,4.4568 -2e-4,-2.6e-4 -2e-4,-2.6e-4 -2e-4,-2.7e-4 0.22875,-0.58282 0.55382,-1.11779 0.95154,-1.59085 -1.97304,-0.95859 -3.22893,-2.92947 -3.22866,-5.12411 0,-2.19224 1.25831,-4.09748 3.09761,-5.05555 -0.82586,-0.43132 -1.74243,-0.65827 -2.69395,-0.65827 -3.19019,0 -5.78565,2.56325 -5.78565,5.71382 0,0.86613 0.19564,1.69768 0.55381,2.44605 0.46823,-0.1192 0.95772,-0.18735 1.46444,-0.18735 z"
       id="path406" />
    <path
       inkscape:connector-curvature="0"
       style="fill:#ffffff;stroke-width:0.26742432"
       d="m 92.307061,104.30924 c 2.42001,-1.68784 5.71943,-1.30675 7.67471,0.88605 0.195179,0.2187 0.495959,0.31519 0.784169,0.25087 2.29298,-0.51292 4.65085,0.38082 6.00629,2.2765 1.84038,2.57335 1.21715,6.14594 -1.38855,7.96348 -1.01423,0.70718 -2.20501,1.06808 -3.44395,1.04471 -0.17655,-0.004 -0.34417,0.0502 -0.48141,0.1456 -0.13701,0.0958 -0.24407,0.23386 -0.30005,0.39946 -0.3918,1.16082 -1.13506,2.14864 -2.149029,2.85556 -2.60623,1.81727 -6.22319,1.2023 -8.06356,-1.37159 -1.28791,-1.80105 -1.40605,-4.20511 -0.30138,-6.12415 0.14181,-0.24609 0.14073,-0.54931 -0.004,-0.79462 -1.51585,-2.57361 -0.7987,-5.81217 1.6668,-7.53189 z"
       id="path408" />
    <path
       inkscape:connector-curvature="0"
       style="fill:#eef6ff;stroke-width:0.26742432"
       d="m 96.596761,118.76045 c -1.2879,-1.80106 -1.40602,-4.20511 -0.30138,-6.12418 0.14184,-0.24606 0.14069,-0.54931 -0.005,-0.7946 -1.51584,-2.57415 -0.79868,-5.81271 1.66681,-7.53215 0.16621,-0.11618 0.33771,-0.22032 0.51183,-0.31679 -1.89528,-1.05136 -4.29106,-0.9889 -6.16291,0.31679 -2.4655,1.7197 -3.18265,4.958 -1.66681,7.53215 0.14451,0.24529 0.14583,0.54854 0.004,0.7946 -1.10439,1.91907 -0.98653,4.32312 0.30139,6.12418 1.72439,2.4115 5.00819,3.10327 7.559,1.68623 -0.73383,-0.40342 -1.39205,-0.96469 -1.90792,-1.68623 z"
       id="path410" />
    <path
       inkscape:connector-curvature="0"
       style="fill:#ffffff;stroke-width:0.26742432"
       d="m 123.78793,87.313388 c 2.30457,1.838522 2.83389,5.077335 1.23143,7.53349 -0.15978,0.245032 -0.17173,0.557038 -0.0303,0.813491 1.12563,2.038639 0.89877,4.522681 -0.57803,6.328001 -2.00454,2.45083 -5.65486,2.83406 -8.13652,0.85415 -0.96551,-0.77043 -1.6423,-1.80345 -1.95768,-2.986884 -0.0446,-0.168747 -0.14253,-0.313328 -0.27313,-0.417754 -0.13081,-0.103847 -0.29467,-0.167887 -0.47121,-0.17589 -1.23785,-0.0556 -2.40278,-0.49218 -3.36831,-1.262354 -2.48191,-1.98016 -2.86967,-5.584402 -0.86488,-8.03549 1.4028,-1.715229 3.71249,-2.483527 5.88332,-1.95786 0.2785,0.0675 0.57345,-0.01728 0.77311,-0.220583 2.09388,-2.142824 5.44389,-2.345579 7.79232,-0.472255 z"
       id="path412" />
    <path
       inkscape:connector-curvature="0"
       style="fill:#eef6ff;stroke-width:0.26742432"
       d="m 121.84208,99.98241 c -0.96553,-0.770433 -1.64231,-1.80345 -1.95769,-2.986863 -0.0446,-0.168743 -0.14253,-0.313352 -0.27315,-0.417774 -0.13081,-0.103848 -0.29465,-0.167887 -0.47118,-0.175891 -1.23786,-0.0556 -2.40281,-0.4922 -3.36834,-1.262381 -2.23539,-1.783498 -2.76527,-4.88226 -1.38478,-7.271433 -1.91006,-0.175453 -3.82416,0.599548 -5.04802,2.096052 -2.00482,2.451095 -1.61704,6.055338 0.86487,8.03549 0.96553,0.770443 2.13047,1.207086 3.36833,1.262361 0.17655,0.0087 0.3404,0.07204 0.47118,0.17589 0.13034,0.104488 0.22851,0.249008 0.27313,0.417755 0.31566,1.183434 0.99246,2.216164 1.95771,2.986884 2.48191,1.97964 6.13197,1.59667 8.13649,-0.85416 0.19908,-0.24343 0.37378,-0.4999 0.52719,-0.76512 -1.09685,-0.10017 -2.17648,-0.5076 -3.09574,-1.240831 z"
       id="path414" />
    <path
       inkscape:connector-curvature="0"
       style="fill:#ffffff;stroke-width:0.26742432"
       d="m 146.63666,127.59935 c 2.33041,-1.80663 5.6449,-1.59137 7.71025,0.50068 0.20621,0.20855 0.51101,0.28994 0.79574,0.21136 2.26392,-0.62719 4.66456,0.1469 6.11581,1.97274 1.97008,2.47794 1.53145,6.07713 -0.9779,8.02276 -0.97656,0.75686 -2.14715,1.17705 -3.38581,1.2161 -0.17656,0.004 -0.34123,0.0673 -0.47335,0.16917 -0.13149,0.10277 -0.2317,0.24611 -0.27906,0.41434 -0.33179,1.1789 -1.02338,2.20261 -1.99996,2.9595 -2.50936,1.94561 -6.15323,1.51243 -8.12357,-0.96577 -1.37887,-1.7341 -1.62026,-4.12939 -0.61544,-6.10131 0.12897,-0.25301 0.11196,-0.55572 -0.0446,-0.79356 -1.64582,-2.49495 -1.09604,-5.76514 1.27796,-7.60603 z"
       id="path416" />
    <path
       inkscape:connector-curvature="0"
       style="fill:#eef6ff;stroke-width:0.26742432"
       d="m 151.63652,142.10025 c -1.37886,-1.7341 -1.62024,-4.12939 -0.61542,-6.1013 0.12897,-0.25302 0.11196,-0.55573 -0.0446,-0.79357 -1.6461,-2.49494 -1.09632,-5.76485 1.27767,-7.60603 0.24596,-0.1906 0.50456,-0.35373 0.7699,-0.49936 -1.98837,-1.0976 -4.50769,-0.95808 -6.38735,0.49936 -2.374,1.84118 -2.92377,5.11109 -1.27768,7.60603 0.15655,0.23784 0.17357,0.54055 0.0446,0.79357 -1.00457,1.97191 -0.76343,4.36695 0.61544,6.1013 1.77711,2.23529 4.91346,2.80003 7.35314,1.46273 -0.65284,-0.35824 -1.24621,-0.84723 -1.73571,-1.46273 z"
       id="path418" />
    <path
       inkscape:connector-curvature="0"
       style="fill:#ffffff;stroke-width:0.26742432"
       d="m 50.265351,129.04453 c 2.33041,-1.80688 5.6449,-1.59137 7.71024,0.50071 0.20615,0.20855 0.51102,0.28993 0.79573,0.21158 2.26394,-0.6272 4.66457,0.1469 6.11583,1.97274 1.97007,2.47794 1.53118,6.07712 -0.97791,8.02301 -0.97656,0.75687 -2.14715,1.17705 -3.38581,1.2161 -0.17653,0.004 -0.34122,0.0673 -0.47335,0.16918 -0.13159,0.10298 -0.23169,0.24611 -0.27906,0.41434 -0.33179,1.17889 -1.02338,2.2026 -1.99994,2.95949 -2.50935,1.94562 -6.15323,1.51244 -8.12357,-0.96577 -1.37888,-1.73409 -1.62026,-4.12936 -0.61545,-6.10104 0.1289,-0.25302 0.11196,-0.5557 -0.0446,-0.79357 -1.64581,-2.49572 -1.09604,-5.76565 1.27796,-7.60683 z"
       id="path420" />
    <path
       inkscape:connector-curvature="0"
       style="fill:#eef6ff;stroke-width:0.26742432"
       d="m 55.298591,143.54544 c -1.37887,-1.73407 -1.62025,-4.12937 -0.61543,-6.10103 0.12889,-0.253 0.11195,-0.55572 -0.0446,-0.79356 -1.64608,-2.49495 -1.09631,-5.76485 1.27769,-7.60606 0.24111,-0.1867 0.4946,-0.34679 0.75428,-0.49057 -1.9908,-1.10822 -4.5198,-0.97108 -6.40511,0.49057 -2.37399,1.84121 -2.92377,5.11111 -1.27768,7.60606 0.15662,0.23784 0.17356,0.54081 0.0446,0.79356 -1.00455,1.97192 -0.76343,4.36696 0.61543,6.10103 1.78117,2.24089 4.92829,2.80271 7.37065,1.45319 -0.64693,-0.35747 -1.23437,-0.84246 -1.71982,-1.45319 z"
       id="path422" />
    <path
       inkscape:connector-curvature="0"
       style="fill:#ffaaaa;stroke-width:0.26742432"
       d="m 94.187001,78.60214 c 2.30454,1.838517 2.83389,5.077075 1.23137,7.533486 -0.15977,0.245034 -0.17172,0.55702 -0.0303,0.813497 1.12566,2.038894 0.8988,4.522951 -0.578,6.328249 -2.00455,2.450828 -5.65487,2.833796 -8.13651,0.85416 -0.96552,-0.770437 -1.64231,-1.803447 -1.9577,-2.986608 -0.0446,-0.168964 -0.14262,-0.313611 -0.27313,-0.417775 -0.13078,-0.103847 -0.29466,-0.167886 -0.4712,-0.17589 -1.23785,-0.05559 -2.40278,-0.492197 -3.36832,-1.262354 -2.4819,-1.980184 -2.86967,-5.584681 -0.86488,-8.035518 1.40281,-1.7152 3.71249,-2.483516 5.88332,-1.957849 0.27852,0.06771 0.57345,-0.01728 0.77312,-0.220558 2.09387,-2.143633 5.44389,-2.346151 7.79232,-0.472796 z"
       id="path424" />
    <path
       inkscape:connector-curvature="0"
       style="fill:#ff8080;stroke-width:0.26742432"
       d="m 89.406971,91.469137 c -0.96553,-0.770697 -1.64232,-1.803687 -1.9577,-2.986866 -0.0446,-0.168743 -0.14262,-0.313331 -0.27314,-0.417778 -0.13077,-0.10363 -0.29466,-0.167663 -0.47119,-0.175887 -1.23785,-0.0556 -2.40278,-0.491917 -3.36832,-1.262357 -2.1345,-1.703238 -2.71521,-4.605603 -1.56212,-6.944566 -0.77797,0.360642 -1.47951,0.889775 -2.03655,1.571187 -2.0048,2.451089 -1.61702,6.055311 0.86488,8.035491 0.96553,0.770185 2.13048,1.206824 3.36833,1.262361 0.17653,0.0087 0.34041,0.07204 0.47119,0.175883 0.13025,0.104495 0.22846,0.249035 0.27314,0.417782 0.31565,1.183172 0.99244,2.216164 1.9577,2.986604 2.4819,1.97964 6.13196,1.596692 8.13648,-0.854146 0.28042,-0.342829 0.51533,-0.710376 0.70477,-1.094667 -1.94451,0.905177 -4.32576,0.707984 -6.10747,-0.713041 z"
       id="path426" />
    <path
       inkscape:connector-curvature="0"
       style="fill:#ffd3b6;stroke-width:0.26742432"
       d="m 119.65,143.67247 c 0.37377,-0.21872 0.77635,-0.40181 1.20877,-0.53525 1.18485,-0.36595 2.43054,-0.34866 3.60271,0.0493 0.16667,0.0569 0.34258,0.0567 0.50351,0.006 0.16,-0.0498 0.30487,-0.14862 0.40929,-0.28887 0.73383,-0.98625 1.74807,-1.70087 2.93266,-2.06683 1.44184,-0.44513 2.9294,-0.30163 4.19767,0.29128 0.0538,-0.31121 0.0825,-0.62906 0.0825,-0.95089 0,-3.15058 -2.59544,-5.71381 -5.78564,-5.71381 -1.24136,0 -2.4254,0.3832 -3.42373,1.10847 -0.14208,0.10341 -0.31029,0.15489 -0.47821,0.15511 -0.16827,0 -0.33637,-0.0515 -0.47818,-0.15511 -0.99837,-0.72473 -2.18213,-1.10847 -3.42376,-1.10847 -2.24671,0 -4.19364,1.27403 -5.15163,3.12611 2.11242,-0.0194 4.07443,1.0936 5.11125,2.95021 0.55462,0.99233 0.76669,2.07662 0.69266,3.13144 z"
       id="path428" />
    <path
       inkscape:connector-curvature="0"
       style="fill:#ffaaaa;stroke-width:0.26742432"
       d="m 105.40816,140.97556 c 0,0.68273 -0.12759,1.3482 -0.36085,1.97033 0.7255,-0.32635 1.53064,-0.50867 2.37909,-0.50867 1.24135,0 2.4254,0.38349 3.42377,1.10851 0.14184,0.10362 0.31,0.15511 0.47818,0.15511 0.16782,-2.7e-4 0.3361,-0.052 0.4782,-0.15511 0.99836,-0.72527 2.18213,-1.10822 3.42376,-1.10851 1.52391,0 2.90814,0.58919 3.9423,1.5438 -1.9e-4,-2.5e-4 -5.3e-4,-2.6e-4 -7.9e-4,-2.6e-4 0.15195,-0.10991 0.31216,-0.21094 0.47658,-0.30695 0.0749,-1.05481 -0.13609,-2.13937 -0.69079,-3.13251 -1.13534,-2.03253 -3.37882,-3.1777 -5.71514,-2.91776 -0.29359,0.032 -0.58178,-0.0958 -0.75133,-0.33514 -1.69827,-2.39236 -4.93447,-3.13091 -7.52858,-1.71732 -0.57238,0.31198 -1.06618,0.70717 -1.48435,1.15711 1.18133,1.04683 1.92997,2.56086 1.92997,4.24789 z"
       id="path430" />
    <path
       inkscape:connector-curvature="0"
       style="fill:#eef6ff;stroke-width:0.26742432"
       d="m 135.55541,144.58669 c -0.95182,-3.00681 -4.20307,-4.68906 -7.24847,-3.7488 -1.18459,0.36595 -2.19908,1.08031 -2.93266,2.06681 -0.1046,0.14062 -0.24945,0.23944 -0.40929,0.28888 -0.16093,0.0493 -0.33693,0.05 -0.50351,-0.006 -1.17192,-0.39783 -2.41758,-0.41512 -3.60271,-0.0493 -0.62295,0.19232 -1.18778,0.48181 -1.68669,0.84297 1.13128,1.04366 1.84413,2.52499 1.84413,4.17084 0,0.38031 -0.0426,0.75449 -0.1184,1.11964 -0.0274,-0.0195 -0.0568,-0.0346 -0.0848,-0.0526 1.10467,0.71516 1.94937,1.79122 2.35597,3.0597 0.7411,-2.31238 2.93321,-3.99357 5.51656,-3.99357 1.24135,0 2.42538,0.38349 3.42374,1.10848 0.14184,0.10363 0.31001,0.15512 0.47819,0.15512 0.16782,0 0.3361,-0.0517 0.47819,-0.15512 0.70101,-0.50944 1.49514,-0.84592 2.33526,-1.00351 0.47765,-1.19511 0.55514,-2.53668 0.15449,-3.80221 z"
       id="path432" />
    <path
       inkscape:connector-curvature="0"
       style="fill:#ffffff;stroke-width:0.26742432"
       d="m 100.90397,143.67752 c 0.7021,0.26392 1.31591,0.6551 1.83877,1.1287 0.002,-0.001 0.005,-0.002 0.007,-0.004 0.58854,-0.79886 1.3794,-1.44281 2.29839,-1.85579 0.23331,-0.62215 0.36088,-1.28762 0.36088,-1.97035 0,-3.15057 -2.59547,-5.71382 -5.785639,-5.71382 -1.24136,0 -2.42541,0.38323 -3.42376,1.10848 -0.14208,0.1034 -0.31029,0.1549 -0.4782,0.15511 -0.16828,0 -0.33637,-0.0515 -0.47819,-0.15511 -0.99836,-0.72473 -2.18213,-1.10848 -3.42375,-1.10848 -2.45608,0 -4.55425,1.52201 -5.39222,3.65898 0.0474,0.20941 0.087,0.4215 0.1106,0.63942 0.0315,0.2902 0.2212,0.54001 0.49408,0.6519 0.64179,0.26204 1.20932,0.63436 1.70016,1.07977 1.44265,-0.79488 3.21763,-0.98012 4.87905,-0.35558 1.16009,0.43612 2.12857,1.21026 2.80051,2.23875 0.0952,0.14668 0.23385,0.25381 0.391,0.31307 0.15725,0.0591 0.33287,0.0697 0.50295,0.0231 1.19427,-0.32767 2.43885,-0.26973 3.599219,0.16616 z"
       id="path434" />
    <path
       inkscape:connector-curvature="0"
       style="fill:#ffffff;stroke-width:0.26742432"
       d="m 115.23031,142.43722 c -1.24135,2.7e-4 -2.4254,0.38324 -3.42376,1.10851 -0.14207,0.1034 -0.31028,0.15489 -0.4782,0.15511 -0.16827,0 -0.33637,-0.0515 -0.47818,-0.15511 -0.99837,-0.72502 -2.18213,-1.10851 -3.42377,-1.10851 -1.92298,0 -3.62475,0.93495 -4.67748,2.36447 1.69694,1.53608 2.37158,3.99756 1.50453,6.24827 -0.0651,0.16939 -0.14092,0.3322 -0.22207,0.49246 0.11517,0.23759 0.21885,0.48128 0.30032,0.73535 0.7411,-2.31237 2.93318,-3.99357 5.51654,-3.99357 1.24135,0 2.42539,0.38349 3.42376,1.10849 0.14184,0.10363 0.31,0.15512 0.47819,0.15512 0.16782,0 0.3361,-0.0519 0.47819,-0.15512 0.99837,-0.72526 2.18213,-1.10823 3.42377,-1.10849 1.20204,0 2.31935,0.36462 3.24532,0.98678 0.0756,-0.36517 0.11839,-0.73935 0.11839,-1.11966 0,-3.15085 -2.5952,-5.7141 -5.78564,-5.7141 z"
       id="path436" />
    <path
       inkscape:connector-curvature="0"
       style="fill:#ffaaaa;stroke-width:0.26742432"
       d="m 74.865361,142.43722 c 1.24136,0 2.4254,0.38349 3.42375,1.10851 0.14182,0.10362 0.31001,0.15511 0.4782,0.15511 0.16791,-2.7e-4 0.3361,-0.052 0.47819,-0.15511 0.99836,-0.72527 2.18213,-1.10822 3.42375,-1.10851 1.40228,0 2.68912,0.49591 3.69178,1.3187 0.53255,-1.07101 1.3751,-1.90974 2.37454,-2.4604 -0.49165,-0.44727 -1.06079,-0.82067 -1.70447,-1.08349 -0.27288,-0.11184 -0.46259,-0.3617 -0.49408,-0.65192 -0.31646,-2.90502 -2.78868,-5.09568 -5.75146,-5.09568 -3.0185,0 -5.49556,2.23691 -5.76116,5.20306 -0.0254,0.28275 -0.20101,0.53098 -0.46096,0.65138 -1.35788,0.62983 -2.38826,1.75399 -2.92216,3.09051 0.92167,-0.61337 2.03117,-0.97216 3.22408,-0.97216 z"
       id="path438" />
    <path
       inkscape:connector-curvature="0"
       style="fill:#ff8080;stroke-width:0.26742432"
       d="m 74.865361,142.43722 c 0.82937,0 1.63101,0.17481 2.37104,0.50441 0.57345,-1.12866 1.51314,-2.06813 2.70903,-2.62276 0.25995,-0.12029 0.43566,-0.36863 0.46096,-0.65138 0.18003,-2.0081 1.37484,-3.67891 3.0637,-4.55062 -0.80461,-0.41563 -1.7174,-0.65244 -2.68453,-0.65244 -3.0185,0 -5.49556,2.23691 -5.76116,5.20306 -0.0254,0.28275 -0.20101,0.53098 -0.46096,0.65138 -1.35788,0.62983 -2.38826,1.75399 -2.92216,3.09051 0.92167,-0.61337 2.03117,-0.97216 3.22408,-0.97216 z"
       id="path440" />
    <path
       inkscape:connector-curvature="0"
       style="fill:#ffffff;stroke-width:0.26742432"
       d="m 72.174371,148.28394 c 1.24135,0 2.42539,0.38349 3.42375,1.10848 0.14182,0.10362 0.31001,0.15511 0.47819,0.15511 0.16791,0 0.33611,-0.0519 0.47819,-0.15511 0.99836,-0.72527 2.18213,-1.10822 3.42375,-1.10848 2.58336,0 4.77545,1.6812 5.51655,3.99357 0.47066,-1.46886 1.5293,-2.67886 2.89955,-3.36903 0.0353,-0.24955 0.0605,-0.50149 0.0605,-0.75742 0,-3.15059 -2.59547,-5.71384 -5.78565,-5.71384 -1.24135,2.7e-4 -2.42539,0.38324 -3.42375,1.10851 -0.1421,0.1034 -0.31027,0.15489 -0.47819,0.15511 -0.16818,0 -0.33637,-0.0515 -0.47819,-0.15511 -0.99836,-0.72502 -2.18214,-1.10851 -3.42376,-1.10851 -3.19018,0 -5.78564,2.56351 -5.78564,5.71384 0,0.33139 0.0296,0.65749 0.085,0.97586 0.87834,-0.53097 1.9063,-0.84298 3.00961,-0.84298 z"
       id="path442" />
    <path
       inkscape:connector-curvature="0"
       style="fill:#eef6ff;stroke-width:0.26742432"
       d="m 72.174371,148.28394 c 0.81268,0 1.59871,0.16723 2.32637,0.48394 -0.023,-0.20337 -0.0391,-0.40845 -0.0391,-0.61656 0,-2.19226 1.2583,-4.09748 3.09787,-5.05554 -0.82614,-0.43133 -1.74297,-0.65827 -2.69423,-0.65827 -3.19017,0 -5.78564,2.5635 -5.78564,5.71381 0,0.3314 0.0296,0.65749 0.085,0.97588 0.87834,-0.53125 1.9063,-0.84326 3.00961,-0.84326 z"
       id="path444" />
    <path
       inkscape:connector-curvature="0"
       style="fill:#ffaaaa;stroke-width:0.26742432"
       d="m 85.225711,153.99804 c 0,-0.59929 0.0953,-1.17706 0.26909,-1.72027 -0.7411,-2.31263 -2.93319,-3.99383 -5.51655,-3.99383 -1.24135,0 -2.42539,0.38321 -3.42375,1.10848 -0.14209,0.1034 -0.31027,0.1549 -0.47819,0.15511 -0.16819,0 -0.33638,-0.0515 -0.47819,-0.15511 -0.99836,-0.72499 -2.18213,-1.10848 -3.42375,-1.10848 -3.19018,0 -5.78565,2.56353 -5.78565,5.71384 0,0.59795 0.0947,1.17863 0.26991,1.72743 h 18.82864 c 0.002,-0.004 0.003,-0.0108 0.004,-0.0152 -0.17224,-0.54454 -0.26588,-1.11992 -0.26588,-1.71229 z"
       id="path446" />
    <path
       inkscape:connector-curvature="0"
       style="fill:#ff8080;stroke-width:0.26742432"
       d="m 72.040631,155.72546 c -0.1752,-0.54879 -0.26992,-1.12947 -0.26992,-1.72742 0,-2.19227 1.25832,-4.09748 3.09788,-5.05555 -0.82614,-0.43132 -1.74295,-0.65855 -2.69422,-0.65855 -3.19018,0 -5.78565,2.56353 -5.78565,5.71384 0,0.59795 0.0947,1.17863 0.26991,1.72743 h 5.382 z"
       id="path448" />
    <path
       inkscape:connector-curvature="0"
       style="fill:#ffd5d5;stroke-width:0.26742432"
       d="m 104.06267,153.99804 c 0,-0.59929 0.0952,-1.17706 0.2691,-1.72027 -0.74111,-2.31263 -2.93317,-3.99383 -5.516529,-3.99383 -1.24135,0 -2.4254,0.38321 -3.42377,1.10848 -0.14206,0.1034 -0.31027,0.1549 -0.47818,0.15511 -0.16828,0 -0.33638,-0.0515 -0.47819,-0.15511 -0.99837,-0.72499 -2.18214,-1.10848 -3.42376,-1.10848 -3.19017,0 -5.78563,2.56353 -5.78563,5.71384 0,0.59795 0.0947,1.17863 0.26989,1.72743 h 18.828639 c 0.002,-0.004 0.002,-0.0108 0.005,-0.0152 -0.17219,-0.54454 -0.26587,-1.11992 -0.26587,-1.71229 z"
       id="path450" />
    <path
       inkscape:connector-curvature="0"
       style="fill:#ffaaaa;stroke-width:0.26742432"
       d="m 122.89964,153.99804 c 0,-0.59929 0.0949,-1.17706 0.26911,-1.72027 -0.74112,-2.31263 -2.93321,-3.99383 -5.51656,-3.99383 -1.24133,0 -2.42537,0.38321 -3.42377,1.10848 -0.14206,0.1034 -0.31025,0.1549 -0.47816,0.15511 -0.16828,0 -0.33637,-0.0515 -0.47819,-0.15511 -0.99837,-0.72499 -2.18213,-1.10848 -3.42376,-1.10848 -3.19017,0 -5.78564,2.56353 -5.78564,5.71384 0,0.59795 0.0947,1.17863 0.26991,1.72743 h 18.82863 c 0.002,-0.004 0.002,-0.0108 0.005,-0.0152 -0.17218,-0.54454 -0.26586,-1.11992 -0.26586,-1.71229 z"
       id="path452" />
    <path
       inkscape:connector-curvature="0"
       style="fill:#ffd3b6;stroke-width:0.26742432"
       d="m 141.99818,155.72546 c 0.17862,-0.55145 0.27662,-1.13265 0.27662,-1.72742 0,-3.15057 -2.59543,-5.71384 -5.78563,-5.71384 -1.24136,0 -2.4254,0.38323 -3.42373,1.10849 -0.14209,0.10341 -0.31029,0.1549 -0.47821,0.15512 -0.16828,0 -0.33637,-0.0515 -0.47819,-0.15512 -0.99836,-0.725 -2.18213,-1.10849 -3.42376,-1.10849 -3.19017,0 -5.78564,2.56353 -5.78564,5.71384 0,0.59795 0.0947,1.17863 0.26991,1.72742 z"
       id="path454" />
    <path
       inkscape:connector-curvature="0"
       style="fill:#e52e49;stroke-width:0.28804472"
       d="m 70.270491,169.77855 7.38167,42.92298 c 8.15722,4.14111 17.18283,6.44582 26.679609,6.44582 9.49679,0 18.52265,-2.30503 26.68015,-6.44611 l 7.3814,-42.92269 z"
       id="path456" />
    <path
       inkscape:connector-curvature="0"
       style="fill:#c0272d;stroke-width:0.28804472"
       d="m 70.270491,169.77855 7.38167,42.92298 c 1.71578,0.87103 3.47193,1.6557 5.26116,2.35991 l -7.22452,-45.28289 z"
       id="path458" />
    <g
       id="g472"
       transform="matrix(0.26909964,0,0,0.30775291,35.442261,61.486462)"
       style="fill:#ff5555">
      <polygon
         style="fill:#ff5555"
         points="178.419,351.88 155.821,351.88 133.77,373.931 137.489,392.809 "
         id="polygon460" />
      <path
         inkscape:connector-curvature="0"
         style="fill:#ff5555"
         d="m 222.898,378.921 27.041,-27.041 h -22.598 l -81.799,81.799 3.72,18.878 57.328,-57.328 c 4.325,-6.436 9.872,-11.983 16.308,-16.308 z"
         id="path462" />
      <path
         inkscape:connector-curvature="0"
         style="fill:#ff5555"
         d="M 292.188,381.152 321.459,351.88 H 298.86 l -21.097,21.096 c 5.206,2.053 10.053,4.816 14.425,8.176 z"
         id="path464" />
      <path
         inkscape:connector-curvature="0"
         style="fill:#ff5555;stroke-width:1.15799344"
         d="M 205.63031,440.542 158.797,490.68458 c 5.95489,2.75947 12.02057,5.29608 18.18585,7.60742 l 37.79634,-40.46586 c -3.76027,-5.23856 -6.8513,-11.04747 -9.14888,-17.28414 z"
         id="path466" />
      <path
         inkscape:connector-curvature="0"
         style="fill:#ff5555"
         d="m 370.381,351.88 -57.871,57.872 c 1.928,5.851 2.986,12.093 2.986,18.581 0,0.354 -0.021,0.703 -0.027,1.056 l 64.554,-64.553 2.553,-12.955 h -12.195 z"
         id="path470" />
      <path
         inkscape:connector-curvature="0"
         style="fill:#ff5555;stroke-width:0.99999994"
         d="m 273.88349,447.90094 -57.871,57.87201 c 1.928,5.851 2.986,12.093 2.986,18.581 0,0.354 -0.021,0.703 -0.027,1.056 l 64.554,-64.55301 2.553,-12.955 h -12.195 z"
         id="path470-3" />
    </g>
    <path
       inkscape:connector-curvature="0"
       style="fill:#ffffff;stroke-width:0.26742432"
       d="m 67.196021,165.55831 v 3.1891 c 0,0.73085 0.60548,1.32881 1.3455,1.32881 h 71.580489 c 0.74004,0 1.3455,-0.59796 1.3455,-1.32881 v -3.1891 z"
       id="path474" />
    <path
       inkscape:connector-curvature="0"
       style="fill:#d9eafc;stroke-width:0.26742432"
       d="m 72.578021,168.74741 v -3.1891 h -5.382 v 3.1891 c 0,0.73085 0.60548,1.32881 1.3455,1.32881 h 5.382 c -0.74003,0 -1.3455,-0.59796 -1.3455,-1.32881 z"
       id="path476" />
    <path
       inkscape:connector-curvature="0"
       style="fill:#ff5555;stroke-width:0.30878627"
       d="m 119.15857,217.02983 14.32459,-18.00699 1.52715,-9.74331 -23.33186,29.3297 c 2.53846,-0.35382 5.03478,-0.88177 7.48012,-1.5794 z"
       id="path478" />
    <path
       inkscape:connector-curvature="0"
       style="fill:#ffaaaa;stroke-width:0.26742432"
       d="m 144.69671,164.49527 c 0,0.73082 -0.60548,1.32879 -1.34549,1.32879 H 65.312331 c -0.74002,0 -1.34551,-0.59797 -1.34551,-1.32879 v -7.70702 c 0,-0.73085 0.60549,-1.3288 1.34551,-1.3288 h 78.038889 c 0.74001,0 1.34549,0.59795 1.34549,1.3288 z"
       id="path480" />
    <path
       inkscape:connector-curvature="0"
       style="fill:#ff5555;stroke-width:0.26742432"
       d="m 72.039811,164.49527 v -7.70702 c 0,-0.73085 0.60549,-1.3288 1.34551,-1.3288 h -8.07299 c -0.74002,0 -1.34551,0.59795 -1.34551,1.3288 v 7.70702 c 0,0.73082 0.60549,1.32879 1.34551,1.32879 h 8.07299 c -0.74002,0 -1.34551,-0.59797 -1.34551,-1.32879 z"
       id="path482" />
    <ellipse
       style="fill:#ffffff;stroke-width:0.26742432"
       cx="104.33177"
       cy="190.09586"
       id="circle484"
       rx="16.280529"
       ry="16.078451" />
    <path
       inkscape:connector-curvature="0"
       style="fill:#d9eafc;stroke-width:0.26742432"
       d="m 90.876801,190.09641 c 0,-8.40942 6.53805,-15.30615 14.867209,-16.01333 -0.46583,-0.0396 -0.93593,-0.064 -1.41224,-0.064 -8.991149,0 -16.279449,7.19783 -16.279449,16.07764 0,8.87957 7.2883,16.07767 16.279449,16.07767 0.47631,0 0.94641,-0.0244 1.41224,-0.064 -8.329159,-0.708 -14.867209,-7.60471 -14.867209,-16.01389 z"
       id="path486" />
    <ellipse
       style="fill:#ffaaaa;stroke-width:0.26742432"
       cx="133.39461"
       cy="120.37916"
       id="circle488"
       rx="4.5746942"
       ry="4.5179114" />
    <ellipse
       style="fill:#ff8080;stroke-width:0.26742432"
       cx="140.12204"
       cy="83.704361"
       id="circle490"
       rx="4.5746942"
       ry="4.5179114" />
    <ellipse
       style="fill:#ffd5d5;stroke-width:0.26742432"
       cx="72.847122"
       cy="108.68576"
       id="circle492"
       rx="4.5746942"
       ry="4.5179114" />
    <path
       inkscape:connector-curvature="0"
       style="fill:#ff8080;stroke-width:0.26742432"
       d="m 100.90397,143.67752 c -1.160339,-0.4361 -2.404939,-0.49376 -3.598919,-0.16659 -0.17012,0.0465 -0.3458,0.0359 -0.50294,-0.0231 -0.15725,-0.0593 -0.29576,-0.16637 -0.39103,-0.31307 -0.67192,-1.02849 -1.64042,-1.80266 -2.80051,-2.23878 -2.81181,-1.05691 -5.94897,0.20336 -7.24927,2.81972 1.27822,1.04895 2.09387,2.62942 2.09387,4.39512 0,0.25594 -0.0254,0.50788 -0.0605,0.75742 -8e-4,2.7e-4 -0.002,0.001 -0.003,0.001 0.78684,-0.39862 1.67595,-0.62585 2.61942,-0.62585 1.24134,0 2.42539,0.38349 3.42374,1.10847 0.14185,0.10363 0.31001,0.15511 0.47819,0.15511 0.16783,0 0.33611,-0.0519 0.4782,-0.15511 0.99836,-0.72526 2.18213,-1.10821 3.42376,-1.10847 2.299439,0 4.284059,1.33489 5.216199,3.25848 0.0809,-0.16031 0.1568,-0.32318 0.22208,-0.49246 1.13452,-2.94435 -0.36785,-6.25147 -3.34949,-7.37219 z"
       id="path498" />
    <path
       inkscape:export-ydpi="684.00006"
       inkscape:export-xdpi="684.00006"
       inkscape:export-filename="/home/leandro/AndroidStudioProjects/CineCachoeiro/app/src/main/res/drawable/ic_sessao.png"
       style="fill:#cd5a76;fill-opacity:1;stroke-width:0.95001656"
       inkscape:connector-curvature="0"
       d="m 104.0674,180.85911 a 9.3126235,9.6914854 0 0 0 -9.312639,9.69147 9.3126235,9.6914854 0 0 0 9.312639,9.6915 9.3126235,9.6914854 0 0 0 9.3126,-9.6915 9.3126235,9.6914854 0 0 0 -9.3126,-9.69147 m 0,1.93828 a 2.3281557,2.4228713 0 0 1 2.32816,2.42286 2.3281557,2.4228713 0 0 1 -2.32816,2.42291 2.3281557,2.4228713 0 0 1 -2.32815,-2.42291 2.3281557,2.4228713 0 0 1 2.32815,-2.42286 m 7.07757,5.35942 c 0.40047,1.26957 -0.27005,2.63605 -1.49,3.05281 -1.22926,0.40705 -2.54235,-0.28107 -2.93348,-1.56035 -0.40044,-1.2696 0.27008,-2.63608 1.49003,-3.0528 1.21995,-0.40705 2.54234,0.28105 2.93345,1.56034 m -14.164499,-0.0292 c 0.40045,-1.25018 1.71353,-1.9383 2.93351,-1.53125 1.229259,0.40705 1.899749,1.77358 1.499309,3.05285 -0.40042,1.26954 -1.713509,1.96737 -2.933479,1.55063 -1.21996,-0.40704 -1.89045,-1.78327 -1.49934,-3.07223 m 11.454549,8.68358 c -1.0337,0.79472 -2.5051,0.55242 -3.2501,-0.53302 -0.75432,-1.08545 -0.52151,-2.59734 0.5215,-3.38236 1.0337,-0.78499 2.49579,-0.54269 3.2501,0.53307 0.75432,1.08543 0.52151,2.5973 -0.5215,3.38231 m -8.744569,0 c -1.04302,-0.78501 -1.27583,-2.29688 -0.5215,-3.38231 0.75433,-1.08548 2.216409,-1.32773 3.250129,-0.53307 1.043,0.78502 1.27581,2.29691 0.5215,3.38236 -0.73572,1.08544 -2.21641,1.31803 -3.250129,0.53302 m 4.376949,-7.71439 a 1.3968935,1.453723 0 0 1 1.3969,1.45371 1.3968935,1.453723 0 0 1 -1.3969,1.45371 1.3968935,1.453723 0 0 1 -1.39689,-1.45371 1.3968935,1.453723 0 0 1 1.39689,-1.45371 z"
       id="path4529" />
  </g>
</svg>
